<svg width="20" height="20" viewBox="0 0 20 20" fill="none" xmlns="http://www.w3.org/2000/svg">
<g id="004-vimeo-social-logo">
<g id="logo-instagram">
<path id="Combined Shape" fill-rule="evenodd" clip-rule="evenodd" d="M5.87667 0.06C6.94333 0.0116667 7.28417 0 10 0C12.7158 0 13.0567 0.0116667 14.1233 0.06C15.7483 0.134167 17.1758 0.5325 18.3217 1.67833C19.4675 2.82417 19.8658 4.25167 19.94 5.87667C19.9883 6.94333 20 7.28417 20 10C20 12.7158 19.9883 13.0567 19.94 14.1233C19.8658 15.7483 19.4675 17.1758 18.3217 18.3217C17.1758 19.4675 15.7483 19.8658 14.1233 19.94C13.0567 19.9883 12.7158 20 10 20C7.28417 20 6.94333 19.9883 5.87667 19.94C4.25167 19.8658 2.82417 19.4675 1.67833 18.3217C0.5325 17.1758 0.134167 15.7483 0.06 14.1233C0.0116667 13.0567 0 12.7158 0 10C0 7.28417 0.0116667 6.94333 0.06 5.87667C0.134167 4.25167 0.5325 2.82417 1.67833 1.67833C2.82417 0.5325 4.25167 0.134167 5.87667 0.06ZM14.0399 1.86015C12.9858 1.81181 12.6691 1.80181 9.99911 1.80181C7.32911 1.80181 7.01245 1.81181 5.95828 1.86015C4.81995 1.91181 3.76411 2.14015 2.95161 2.95265C2.13911 3.76515 1.91078 4.82098 1.85911 5.95931C1.81078 7.01348 1.80078 7.33015 1.80078 10.0001C1.80078 12.6701 1.81078 12.9868 1.85911 14.041C1.91078 15.1793 2.13911 16.2351 2.95161 17.0476C3.76411 17.8601 4.81995 18.0885 5.95828 18.1401C7.01245 18.1885 7.32911 18.1985 9.99911 18.1985C12.6691 18.1985 12.9858 18.1885 14.0399 18.1401C15.1783 18.0885 16.2341 17.8601 17.0466 17.0476C17.8591 16.2351 18.0874 15.1793 18.1391 14.041C18.1874 12.9868 18.1974 12.6701 18.1974 10.0001C18.1974 7.33015 18.1874 7.01348 18.1391 5.95931C18.0874 4.82098 17.8591 3.76515 17.0466 2.95265C16.2341 2.14015 15.1783 1.91181 14.0399 1.86015ZM4.86328 9.9994C4.86328 7.16357 7.16245 4.86441 9.99828 4.86441C12.8341 4.86441 15.1333 7.16357 15.1333 9.9994C15.1333 12.8352 12.8341 15.1344 9.99828 15.1344C7.16245 15.1344 4.86328 12.8352 4.86328 9.9994ZM6.66406 9.99957C6.66406 11.8404 8.15656 13.3329 9.99739 13.3329C11.8382 13.3329 13.3307 11.8404 13.3307 9.99957C13.3307 8.15874 11.8382 6.66624 9.99739 6.66624C8.15656 6.66624 6.66406 8.15874 6.66406 9.99957ZM16.5367 4.66223C16.5367 5.32498 15.9995 5.86223 15.3367 5.86223C14.674 5.86223 14.1367 5.32498 14.1367 4.66223C14.1367 3.99949 14.674 3.46223 15.3367 3.46223C15.9995 3.46223 16.5367 3.99949 16.5367 4.66223Z" fill="#D3674A"/>
</g>
</g>
</svg>
